<svg width="32" height="32" viewBox="0 0 32 32" fill="none" xmlns="http://www.w3.org/2000/svg">
<path d="M14.592 13.9707C14.05 13.9707 13.623 14.4457 13.623 15.0257C13.623 15.6037 14.06 16.0807 14.592 16.0807C15.133 16.0807 15.56 15.6037 15.56 15.0257C15.571 14.4447 15.133 13.9707 14.592 13.9707ZM18.06 13.9707C17.518 13.9707 17.091 14.4457 17.091 15.0257C17.091 15.6037 17.528 16.0807 18.06 16.0807C18.601 16.0807 19.028 15.6037 19.028 15.0257C19.027 14.4447 18.601 13.9707 18.06 13.9707Z" fill="white"/>
<path d="M22.678 6H9.94701C9.69067 6.00066 9.43696 6.0518 9.20039 6.1505C8.96381 6.2492 8.74899 6.39354 8.5682 6.57526C8.3874 6.75699 8.24417 6.97254 8.14668 7.20962C8.04919 7.4467 7.99935 7.70066 8.00001 7.957V20.801C8.00001 21.884 8.87401 22.758 9.94701 22.758H20.72L20.215 20.999L21.432 22.13L22.581 23.194L24.625 25V7.957C24.6257 7.70066 24.5758 7.4467 24.4783 7.20962C24.3808 6.97254 24.2376 6.75699 24.0568 6.57526C23.876 6.39354 23.6612 6.2492 23.4246 6.1505C23.188 6.0518 22.9343 6.00066 22.678 6ZM19.01 18.407C19.01 18.407 18.668 17.999 18.384 17.636C19.628 17.284 20.103 16.506 20.103 16.506C19.713 16.762 19.343 16.944 19.01 17.068C17.7977 17.5754 16.4626 17.7138 15.172 17.466C14.6951 17.3723 14.2278 17.2351 13.776 17.056C13.5377 16.9655 13.3061 16.8582 13.083 16.735C13.054 16.714 13.026 16.706 12.998 16.687C12.983 16.6799 12.9697 16.6697 12.959 16.657C12.788 16.563 12.693 16.497 12.693 16.497C12.693 16.497 13.149 17.257 14.356 17.618C14.071 17.978 13.719 18.407 13.719 18.407C11.62 18.34 10.823 16.963 10.823 16.963C10.823 13.904 12.191 11.425 12.191 11.425C13.559 10.398 14.86 10.427 14.86 10.427L14.955 10.541C13.245 11.036 12.456 11.786 12.456 11.786C12.456 11.786 12.666 11.672 13.017 11.511C14.033 11.065 14.84 10.941 15.173 10.912C15.23 10.903 15.278 10.893 15.335 10.893C16.9822 10.671 18.6572 10.9841 20.113 11.786C20.113 11.786 19.362 11.074 17.747 10.58L17.88 10.428C17.88 10.428 19.182 10.399 20.549 11.426C20.549 11.426 21.917 13.905 21.917 16.964C21.917 16.963 21.11 18.34 19.01 18.407Z" fill="white"/>
<circle cx="16" cy="16" r="15.5" stroke="white"/>
</svg>
