<svg width="32" height="32" viewBox="0 0 32 32" fill="none" xmlns="http://www.w3.org/2000/svg">
<circle cx="16" cy="16" r="15.5" stroke="white"/>
<path fill-rule="evenodd" clip-rule="evenodd" d="M16 4C9.37 4 4 9.37 4 16C4 21.31 7.435 25.795 12.205 27.385C12.805 27.49 13.03 27.13 13.03 26.815C13.03 26.53 13.015 25.585 13.015 24.58C10 25.135 9.22 23.845 8.98 23.17C8.845 22.825 8.26 21.76 7.75 21.475C7.33 21.25 6.73 20.695 7.735 20.68C8.68 20.665 9.355 21.55 9.58 21.91C10.66 23.725 12.385 23.215 13.075 22.9C13.18 22.12 13.495 21.595 13.84 21.295C11.17 20.995 8.38 19.96 8.38 15.37C8.38 14.065 8.845 12.985 9.61 12.145C9.49 11.845 9.07 10.615 9.73 8.965C9.73 8.965 10.735 8.65 13.03 10.195C13.99 9.925 15.01 9.79 16.03 9.79C17.05 9.79 18.07 9.925 19.03 10.195C21.325 8.635 22.33 8.965 22.33 8.965C22.99 10.615 22.57 11.845 22.45 12.145C23.215 12.985 23.68 14.05 23.68 15.37C23.68 19.975 20.875 20.995 18.205 21.295C18.64 21.67 19.015 22.39 19.015 23.515C19.015 25.12 19 26.41 19 26.815C19 27.13 19.225 27.505 19.825 27.385C22.2072 26.5807 24.2772 25.0497 25.7437 23.0074C27.2101 20.965 27.9993 18.5143 28 16C28 9.37 22.63 4 16 4Z" fill="white"/>
</svg>
