<svg width="32" height="32" viewBox="0 0 32 32" fill="none" xmlns="http://www.w3.org/2000/svg">
<path d="M16.0001 24L13.0541 14.7742H18.946L16.0001 24ZM16.0001 24L8.92499 14.7742H13.0541L16.0001 24ZM8.92499 14.7742L16.0001 24L8.25094 18.2714C8.14683 18.1943 8.06938 18.0856 8.02969 17.9609C7.99 17.8362 7.99011 17.702 8.02999 17.5774L8.92499 14.7742ZM8.92499 14.7742L10.6998 9.2167C10.7194 9.15417 10.758 9.0996 10.8101 9.06088C10.8622 9.02215 10.925 9.00129 10.9896 9.00129C11.0541 9.00129 11.1169 9.02215 11.169 9.06088C11.2211 9.0996 11.2597 9.15417 11.2793 9.2167L13.0541 14.7742H8.92499ZM16.0001 24L18.946 14.7742H23.0744L16.0001 24ZM23.0744 14.7742L23.9702 17.5774C24.01 17.7021 24.0099 17.8364 23.9701 17.9611C23.9303 18.0858 23.8527 18.1944 23.7484 18.2714L15.9993 24L23.0744 14.7742ZM23.0744 14.7742H18.946L20.72 9.2167C20.7394 9.15386 20.778 9.09896 20.8302 9.05999C20.8824 9.02101 20.9455 9 21.0102 9C21.0749 9 21.138 9.02101 21.1902 9.05999C21.2424 9.09896 21.281 9.15386 21.3004 9.2167L23.0744 14.7742Z" fill="white"/>
<circle cx="16" cy="16" r="15.5" stroke="white"/>
</svg>
