<svg width="32" height="32" viewBox="0 0 32 32" fill="none" xmlns="http://www.w3.org/2000/svg">
<path fill-rule="evenodd" clip-rule="evenodd" d="M26 16C26 21.5225 21.5225 26 16 26C10.4775 26 6 21.5225 6 16C6 10.4775 10.4775 6 16 6C21.5225 6 26 10.4775 26 16ZM22.4067 15.215C22.5683 15.4458 22.66 15.7183 22.67 16C22.6744 16.2756 22.6006 16.5467 22.4573 16.7821C22.3139 17.0175 22.1068 17.2074 21.86 17.33C21.8717 17.4767 21.8717 17.6233 21.86 17.77C21.86 20.01 19.25 21.83 16.03 21.83C12.81 21.83 10.2 20.01 10.2 17.77C10.1887 17.6235 10.1887 17.4764 10.2 17.33C10.0093 17.2407 9.84021 17.1112 9.70432 16.9504C9.56844 16.7896 9.46899 16.6012 9.41281 16.3983C9.35663 16.1954 9.34506 15.9827 9.37889 15.7749C9.41272 15.5671 9.49115 15.3691 9.60878 15.1944C9.72641 15.0198 9.88046 14.8727 10.0603 14.7633C10.2402 14.6539 10.4417 14.5847 10.6508 14.5605C10.86 14.5364 11.0719 14.5578 11.272 14.6233C11.4721 14.6888 11.6556 14.7968 11.81 14.94C12.9623 14.1585 14.3179 13.731 15.71 13.71L16.45 10.24C16.4583 10.1998 16.4745 10.1617 16.4977 10.1278C16.5208 10.094 16.5505 10.065 16.5849 10.0427C16.6193 10.0204 16.6578 10.0051 16.6982 9.99779C16.7385 9.99046 16.7799 9.99121 16.82 10L19.27 10.49C19.3896 10.2844 19.5786 10.1283 19.8031 10.0495C20.0275 9.9707 20.2726 9.9745 20.4945 10.0602C20.7164 10.1459 20.9005 10.3078 21.0137 10.517C21.1269 10.7262 21.1619 10.9689 21.1123 11.2015C21.0627 11.4341 20.9319 11.6414 20.7432 11.7863C20.5545 11.9311 20.3204 12.0039 20.0829 11.9917C19.8453 11.9795 19.6199 11.883 19.4471 11.7196C19.2743 11.5562 19.1654 11.3365 19.14 11.1L17 10.65L16.35 13.77C17.7252 13.7995 19.0624 14.2267 20.2 15C20.3519 14.854 20.5335 14.7426 20.7325 14.6735C20.9315 14.6043 21.1431 14.5791 21.3528 14.5996C21.5625 14.62 21.7653 14.6856 21.9472 14.7918C22.1291 14.8981 22.2858 15.0424 22.4067 15.215ZM12.8383 16.4442C12.7653 16.5534 12.7146 16.6759 12.6889 16.8047C12.6633 16.9336 12.6633 17.0662 12.6889 17.195C12.7406 17.4552 12.8936 17.6842 13.1142 17.8317C13.3347 17.9791 13.6048 18.0328 13.865 17.9811C13.9939 17.9555 14.1164 17.9048 14.2257 17.8318C14.3349 17.7588 14.4287 17.665 14.5017 17.5558C14.6491 17.3353 14.7028 17.0652 14.6511 16.805C14.5994 16.5448 14.4464 16.3157 14.2258 16.1683C14.0053 16.0209 13.7352 15.9672 13.475 16.0189C13.2147 16.0706 12.9857 16.2236 12.8383 16.4442ZM16.01 20.52C16.8975 20.5567 17.7708 20.325 18.48 19.79C18.533 19.7383 18.5634 19.6676 18.5643 19.5935C18.5652 19.5195 18.5367 19.448 18.485 19.395C18.4594 19.3687 18.4289 19.3478 18.3952 19.3333C18.3614 19.3188 18.3252 19.3112 18.2885 19.3107C18.2145 19.3098 18.143 19.3383 18.09 19.39C17.4831 19.8254 16.7458 20.0406 16 20C15.2551 20.0333 14.5212 19.811 13.92 19.37C13.8682 19.3275 13.8024 19.3057 13.7355 19.309C13.6685 19.3123 13.6052 19.3404 13.5578 19.3878C13.5104 19.4352 13.4823 19.4985 13.479 19.5655C13.4757 19.6324 13.4975 19.6982 13.54 19.75C14.2495 20.2847 15.1224 20.5568 16.01 20.52ZM17.7442 17.8717C17.9092 17.9817 18.0925 18.08 18.29 18.08C18.4256 18.0816 18.5602 18.0555 18.6854 18.0034C18.8106 17.9514 18.924 17.8743 19.0185 17.777C19.1129 17.6797 19.1866 17.5642 19.235 17.4375C19.2835 17.3108 19.3056 17.1755 19.3 17.04C19.2999 16.8673 19.2551 16.6975 19.1699 16.5472C19.0848 16.397 18.9621 16.2713 18.8139 16.1825C18.6658 16.0938 18.4971 16.0449 18.3244 16.0407C18.1517 16.0365 17.9809 16.077 17.8286 16.1585C17.6762 16.2399 17.5476 16.3594 17.4552 16.5053C17.3628 16.6513 17.3097 16.8186 17.3012 16.9912C17.2927 17.1637 17.329 17.3355 17.4067 17.4898C17.4843 17.6441 17.6006 17.7757 17.7442 17.8717Z" fill="white"/>
<circle cx="16" cy="16" r="15.5" stroke="white"/>
</svg>
