<svg width="32" height="32" viewBox="0 0 32 32" fill="none" xmlns="http://www.w3.org/2000/svg">
<path d="M12.3262 9C11.8485 9.0045 11.3837 9.14168 10.9936 9.39326L11.0018 9.38857C10.6063 9.64132 10.3057 9.9991 10.141 10.4132C9.97623 10.8274 9.95534 11.2778 10.0811 11.7031L10.076 11.6886V21.8542C10.076 23.0429 11.1277 24 12.428 24C13.7283 24 14.7799 23.0429 14.7799 21.8542V19.7084H16.0592L18.6387 23.0724C18.8142 23.3039 19.0381 23.5015 19.2976 23.6536C19.5571 23.8058 19.8471 23.9096 20.1508 23.9591C20.4545 24.0085 20.7659 24.0027 21.0671 23.9418C21.3683 23.8809 21.6533 23.7662 21.9057 23.6044C22.1592 23.4444 22.3755 23.2402 22.5421 23.0036C22.7086 22.7669 22.8222 22.5025 22.8762 22.2256C22.9301 21.9487 22.9235 21.6648 22.8565 21.3903C22.7896 21.1158 22.6638 20.8561 22.4862 20.6261L20.854 18.4972C21.5258 17.9948 22.0669 17.3625 22.438 16.646C22.8091 15.9295 23.0011 15.1467 23 14.3542C23 11.398 20.3511 9.00281 17.1211 9.00281H12.3956L12.3262 9ZM13.9101 9.54184H17.1211C20.0326 9.58356 22.3712 11.7706 22.3254 14.4268C22.3137 15.1093 22.1432 15.7816 21.8254 16.3994C21.5075 17.0172 21.0495 17.5664 20.4816 18.0107L20.1687 17.6052C20.8973 17.0368 21.4174 16.2784 21.659 15.432C21.9006 14.5856 21.852 13.6921 21.5199 12.8716C21.188 12.0509 20.5884 11.3427 19.8018 10.8424C19.0152 10.3422 18.0794 10.0739 17.1206 10.0738H14.3859C14.3501 10.0171 14.3117 9.96174 14.2708 9.90791L14.2759 9.91541C14.1705 9.7795 14.0485 9.65496 13.9122 9.54418L13.9101 9.54184ZM14.6248 10.604H17.1211C19.3929 10.604 21.2311 12.281 21.2311 14.3537C21.2318 14.887 21.1075 15.4142 20.8666 15.9C20.6257 16.3859 20.2737 16.8191 19.8342 17.1707L19.4998 16.7339C21.8759 14.7493 20.3398 11.1383 17.1211 11.136H14.6993C14.699 10.9514 14.673 10.7675 14.6217 10.589L14.6248 10.604ZM14.6273 11.6783H17.1211C17.5073 11.6853 17.8881 11.7618 18.2418 11.9034C18.5956 12.045 18.9152 12.2488 19.1824 12.5033C19.4496 12.7578 19.6591 13.0578 19.799 13.3863C19.9389 13.7147 20.0064 14.0652 19.9976 14.4175C19.9819 15.1098 19.6742 15.7699 19.1386 16.2605L18.9701 16.043C18.913 15.9662 18.8494 15.8934 18.78 15.8255C19.1783 15.4414 19.4054 14.9358 19.4171 14.4072C19.4287 13.8372 19.1926 13.2862 18.7604 12.8745C18.3282 12.4628 17.735 12.2238 17.1103 12.2098H14.3915C14.4907 12.0561 14.5708 11.8803 14.6268 11.6923L14.6294 11.6778L14.6273 11.6783ZM10.6699 12.6424C10.8375 12.7984 11.0295 12.9309 11.2397 13.0357L11.253 13.0404V21.8533C11.2528 21.9944 11.2831 22.1342 11.3422 22.2646C11.4013 22.395 11.4881 22.5135 11.5974 22.6133C11.7068 22.7131 11.8367 22.7922 11.9797 22.8462C12.1226 22.9001 12.2758 22.9278 12.4305 22.9276C13.0676 22.9276 13.5947 22.4467 13.605 21.8434V18.6355H15.2346L15.6523 19.1773H14.186V21.8528C14.111 23.9203 10.7475 23.9203 10.6699 21.8528V12.6424ZM14.186 12.7399H17.1216C17.3542 12.7391 17.5846 12.7803 17.7996 12.8611C18.0146 12.9419 18.2099 13.0608 18.3744 13.2108C18.5388 13.3608 18.6691 13.539 18.7576 13.7352C18.8462 13.9314 18.8914 14.1416 18.8905 14.3537C18.8905 14.8028 18.6927 15.2082 18.3716 15.4988C18.1971 15.3903 18.0071 15.304 17.807 15.2424C17.9625 15.144 18.0895 15.0126 18.1771 14.8595C18.2647 14.7064 18.3103 14.5363 18.3099 14.3636C18.3097 14.2214 18.2788 14.0806 18.219 13.9493C18.1592 13.818 18.0716 13.6988 17.9612 13.5984C17.8509 13.498 17.72 13.4184 17.5759 13.3641C17.4318 13.3099 17.2775 13.282 17.1216 13.2822H14.7697V15.4379H15.8295C15.5802 15.577 15.3608 15.7565 15.1822 15.9675H14.1865L14.186 12.7399ZM13.5947 12.9673V16.5122H14.8524C14.7832 16.683 14.7373 16.8608 14.7157 17.0418H13.0111V13.204C13.233 13.143 13.4257 13.0624 13.6024 12.9621L13.5947 12.9673ZM11.8366 13.2354C11.9944 13.2719 12.1737 13.2893 12.3586 13.2893H12.4311V17.5738H14.727C14.7563 17.7543 14.8072 17.9301 14.8904 18.1035H13.0121V21.8533C13.0101 21.9943 12.9487 22.1292 12.8406 22.2301C12.7325 22.331 12.5861 22.3901 12.4316 22.3951C12.3544 22.396 12.2779 22.3829 12.2063 22.3568C12.1346 22.3306 12.0694 22.2918 12.0142 22.2426C11.9591 22.1934 11.9151 22.1348 11.8848 22.0701C11.8545 22.0054 11.8385 21.9358 11.8377 21.8654L11.8366 13.2354ZM15.3528 13.8119H17.1108C17.4402 13.8119 17.7047 14.0537 17.7047 14.3537C17.7047 14.6565 17.453 14.9054 17.1216 14.9054L15.3528 14.8956V13.8119Z" fill="white"/>
<circle cx="16" cy="16" r="15.5" stroke="white"/>
</svg>
