<svg width="522" height="223" viewBox="0 0 522 223" fill="none" xmlns="http://www.w3.org/2000/svg">
<path d="M158.8 164.2C156.5 123.5 105.3 105 100.4 103.1C100.2 103 100.2 102.8 100.3 102.6L153.1 49.6V43.9C153.1 43 152.3 42.2 151.4 42.2H54.1V10.3V0.700012L18.2 8.20001V13.6H20.2C20.2 13.6 29 13.6 29 22.4V42.1H1.20001C0.700012 42.1 0.200012 42.6 0.200012 43.1V55.6H29.1C29.1 55.6 29.1 68.9 29.1 84.4V123.5C29.1 144.8 42.8 159.6 66.8 157.6C71.9 157.2 76.6 155.2 80.6 152.6C82.4 151.4 83.5 149.5 83.5 147.3V140.6C75.7 145.8 69.1 145.5 69.1 145.5C53.9 145.5 54.2 126.2 54.2 126.2V55.6H124.2L73.8 106.4C73.7 113.1 73.6 118.3 73.6 118.4C73.6 118.6 73.7 118.7 73.9 118.7C120.1 126.5 132.6 156.4 132.6 165.1C132.6 165.1 137.6 207.4 95.3 210.3C95.3 210.3 67.6 211.5 62.7 200.4C62.5 200 62.7 199.6 63.1 199.4C67.7 197.3 70.8 193.2 70.8 187.7C70.8 179.5 65.8 172.8 55.3 172.8C46.8 172.8 39.8 179.5 39.8 187.7C39.8 187.7 35.8 223.3 95.2 222.3C163 221.1 158.8 164.2 158.8 164.2Z" fill="white"/>
<path d="M259.833 125.913L263.393 143.79L267.743 126.704L292.739 41.8281H301.52L326.199 126.704L330.471 143.948L334.268 125.913L355.071 41.8281H365.038L335.533 157H326.199L300.096 66.9033L297.169 55.5127L294.321 66.9033L267.585 157H258.251L228.825 41.8281H238.792L259.833 125.913ZM392.17 157H382.678V71.4121H392.17V157ZM381.017 46.6533C381.017 44.8604 381.597 43.3574 382.757 42.1445C383.917 40.8789 385.499 40.2461 387.503 40.2461C389.507 40.2461 391.089 40.8789 392.249 42.1445C393.462 43.3574 394.068 44.8604 394.068 46.6533C394.068 48.4463 393.462 49.9492 392.249 51.1621C391.089 52.375 389.507 52.9814 387.503 52.9814C385.499 52.9814 383.917 52.375 382.757 51.1621C381.597 49.9492 381.017 48.4463 381.017 46.6533ZM438.286 113.89L427.449 124.331V157H417.957V35.5H427.449V113.257L436.388 103.606L469.136 71.4121H481.08L444.772 107.482L484.244 157H472.933L438.286 113.89ZM507.975 157H498.482V71.4121H507.975V157ZM496.821 46.6533C496.821 44.8604 497.401 43.3574 498.562 42.1445C499.722 40.8789 501.304 40.2461 503.308 40.2461C505.312 40.2461 506.894 40.8789 508.054 42.1445C509.267 43.3574 509.873 44.8604 509.873 46.6533C509.873 48.4463 509.267 49.9492 508.054 51.1621C506.894 52.375 505.312 52.9814 503.308 52.9814C501.304 52.9814 499.722 52.375 498.562 51.1621C497.401 49.9492 496.821 48.4463 496.821 46.6533Z" fill="white"/>
</svg>
