<svg width="32" height="32" viewBox="0 0 32 32" fill="none" xmlns="http://www.w3.org/2000/svg">
<circle cx="16" cy="16" r="15.5" stroke="white"/>
<g clip-path="url(#clip0)">
<path d="M21.9924 19.8051C21.8185 16.8664 17.9471 15.5307 17.5766 15.3935C17.5614 15.3863 17.5614 15.3718 17.569 15.3574L21.5614 11.5307V11.1191C21.5614 11.0542 21.5009 10.9964 21.4329 10.9964H14.0756V8.69314V8L11.3611 8.54152V8.93141H11.5123C11.5123 8.93141 12.1777 8.93141 12.1777 9.56679V10.9892H10.0756C10.0378 10.9892 10 11.0253 10 11.0614V11.9639H12.1853C12.1853 11.9639 12.1853 12.9242 12.1853 14.0433V16.8664C12.1853 18.4043 13.2212 19.4729 15.0359 19.3285C15.4216 19.2996 15.7769 19.1552 16.0794 18.9675C16.2155 18.8809 16.2987 18.7437 16.2987 18.5848V18.1011C15.7089 18.4765 15.2098 18.4549 15.2098 18.4549C14.0605 18.4549 14.0832 17.0614 14.0832 17.0614V11.9639H19.3762L15.5652 15.6318C15.5577 16.1155 15.5501 16.491 15.5501 16.4982C15.5501 16.5126 15.5577 16.5199 15.5728 16.5199C19.0662 17.083 20.0113 19.2419 20.0113 19.87C20.0113 19.87 20.3894 22.9242 17.1909 23.1336C17.1909 23.1336 15.0964 23.2202 14.7259 22.4188C14.7108 22.3899 14.7259 22.361 14.7561 22.3466C15.104 22.1949 15.3384 21.8989 15.3384 21.5018C15.3384 20.9097 14.9603 20.426 14.1664 20.426C13.5236 20.426 12.9943 20.9097 12.9943 21.5018C12.9943 21.5018 12.6919 24.0722 17.1834 24C22.31 23.9134 21.9924 19.8051 21.9924 19.8051Z" fill="white"/>
</g>
<defs>
<clipPath id="clip0">
<rect width="12" height="16" fill="white" transform="translate(10 8)"/>
</clipPath>
</defs>
</svg>
