<svg width="32" height="32" viewBox="0 0 32 32" fill="none" xmlns="http://www.w3.org/2000/svg">
<path d="M25.2465 10.715C24.5924 11.0049 23.8898 11.2007 23.1512 11.2892C23.9133 10.8332 24.4835 10.1154 24.7554 9.26986C24.0393 9.69518 23.2556 9.99456 22.4384 10.155C21.8888 9.56819 21.1609 9.17925 20.3676 9.04856C19.5743 8.91786 18.7601 9.05272 18.0513 9.4322C17.3425 9.81168 16.7789 10.4145 16.4478 11.1472C16.1168 11.8798 16.0369 12.7013 16.2206 13.484C14.7696 13.4112 13.3503 13.034 12.0545 12.3771C10.7588 11.7202 9.61567 10.7982 8.69933 9.67091C8.38601 10.2114 8.20585 10.838 8.20585 11.5054C8.2055 12.1062 8.35345 12.6978 8.63657 13.2277C8.91969 13.7575 9.32923 14.2094 9.82885 14.543C9.24942 14.5246 8.68278 14.368 8.17609 14.0864V14.1334C8.17603 14.976 8.4675 15.7927 9.00104 16.4449C9.53459 17.0971 10.2773 17.5446 11.1033 17.7115C10.5658 17.8569 10.0022 17.8784 9.45521 17.7741C9.68824 18.4992 10.1422 19.1332 10.7534 19.5874C11.3647 20.0416 12.1027 20.2934 12.8641 20.3073C11.5716 21.322 9.97524 21.8724 8.33196 21.87C8.04088 21.8701 7.75003 21.8531 7.46094 21.8191C9.12895 22.8915 11.0706 23.4607 13.0537 23.4585C19.7665 23.4585 23.4363 17.8987 23.4363 13.0767C23.4363 12.92 23.4324 12.7618 23.4253 12.6051C24.1391 12.0889 24.7553 11.4497 25.2449 10.7174L25.2465 10.715Z" fill="white"/>
<circle cx="16" cy="16" r="15.5" stroke="white"/>
</svg>
